<?xml version="1.0" encoding="utf-8"?>
<!-- Generator: Adobe Illustrator 16.0.0, SVG Export Plug-In . SVG Version: 6.00 Build 0)  -->
<!DOCTYPE svg PUBLIC "-//W3C//DTD SVG 1.1//EN" "http://www.w3.org/Graphics/SVG/1.1/DTD/svg11.dtd" [
        <!ENTITY ns_extend "http://ns.adobe.com/Extensibility/1.0/">
        <!ENTITY ns_ai "http://ns.adobe.com/AdobeIllustrator/10.0/">
        <!ENTITY ns_graphs "http://ns.adobe.com/Graphs/1.0/">
        <!ENTITY ns_vars "http://ns.adobe.com/Variables/1.0/">
        <!ENTITY ns_imrep "http://ns.adobe.com/ImageReplacement/1.0/">
        <!ENTITY ns_sfw "http://ns.adobe.com/SaveForWeb/1.0/">
        <!ENTITY ns_custom "http://ns.adobe.com/GenericCustomNamespace/1.0/">
        <!ENTITY ns_adobe_xpath "http://ns.adobe.com/XPath/1.0/">
        ]>
<svg version="1.1" id="Слой_1"
	 xmlns="http://www.w3.org/2000/svg"  x="0px" y="0px" width="446.978px"
	 height="238.488px" viewBox="969.827 3.602 446.978 238.488" enable-background="new 969.827 3.602 446.978 238.488"
	 xml:space="preserve">
<metadata>
	<sfw  xmlns="&ns_sfw;">
		<slices></slices>
		<sliceSourceBounds  width="1919" height="453.511" y="175.582" x="-622.744" bottomLeftOrigin="true"></sliceSourceBounds>
	</sfw>
</metadata>
<rect x="1089.144" y="14.407" fill="#FFFFFF" width="1.354" height="1.35"/>
<rect x="1199.046" y="124.306" fill="#FFFFFF" width="1.35" height="1.351"/>
<rect x="1088.47" y="234.207" fill="#FFFFFF" width="1.352" height="1.352"/>
<rect x="979.244" y="124.981" fill="#FFFFFF" width="1.351" height="1.352"/>
<rect x="987.955" y="81.118" fill="#FFFFFF" width="1.351" height="1.351"/>
<rect x="1010.087" y="47.996" fill="#FFFFFF" width="1.353" height="1.352"/>
<rect x="1045.105" y="23.552" fill="#FFFFFF" width="1.352" height="1.351"/>
<rect x="1129.169" y="21.89" fill="#FFFFFF" width="1.35" height="1.351"/>
<rect x="1162.575" y="42.516" fill="#FFFFFF" width="1.35" height="1.351"/>
<rect x="1190.06" y="80.443" fill="#FFFFFF" width="1.352" height="1.351"/>
<rect x="1189.384" y="169.338" fill="#FFFFFF" width="1.352" height="1.35"/>
<rect x="1166.367" y="202.329" fill="#FFFFFF" width="1.352" height="1.351"/>
<rect x="1130.519" y="226.332" fill="#FFFFFF" width="1.353" height="1.352"/>
<rect x="1045.831" y="225.346" fill="#FFFFFF" width="1.352" height="1.35"/>
<rect x="1012.271" y="202.744" fill="#FFFFFF" width="1.353" height="1.35"/>
<rect x="988.525" y="168.662" fill="#FFFFFF" width="1.352" height="1.351"/>
<linearGradient id="SVGID_1_" gradientUnits="userSpaceOnUse" x1="561.4736" y1="-258.5635" x2="561.4736" y2="-159.0459" gradientTransform="matrix(0.9313 0.3644 -0.3644 0.9313 440.5735 38.6337)">
	<stop  offset="0" style="stop-color:#FFFFFF;stop-opacity:0.5"/>
	<stop  offset="1" style="stop-color:#FFFFFF;stop-opacity:0"/>
</linearGradient>
<line fill="none" stroke="url(#SVGID_1_)" stroke-width="0.25" stroke-miterlimit="10" x1="989.306" y1="82.469" x2="1089.819" y2="15.081"/>
<linearGradient id="SVGID_2_" gradientUnits="userSpaceOnUse" x1="-114.6577" y1="-103.7822" x2="-114.6577" y2="-45.8867" gradientTransform="matrix(1 -4.000000e-004 4.000000e-004 1 1131.894 127.7986)">
	<stop  offset="0" style="stop-color:#FFFFFF"/>
	<stop  offset="1" style="stop-color:#FFFFFF;stop-opacity:0"/>
</linearGradient>
<line fill="none" stroke="url(#SVGID_2_)" stroke-width="0.5" stroke-miterlimit="10" x1="988.632" y1="81.792" x2="1045.78" y2="24.227"/>
<linearGradient id="SVGID_3_" gradientUnits="userSpaceOnUse" x1="-1766.3179" y1="-1333.6489" x2="-1766.3179" y2="-1255.2124" gradientTransform="matrix(0.2855 -0.9584 0.9584 0.2855 2871.4021 -1294.1423)">
	<stop  offset="0" style="stop-color:#FFFFFF"/>
	<stop  offset="1" style="stop-color:#FFFFFF;stop-opacity:0"/>
</linearGradient>
<line fill="none" stroke="url(#SVGID_3_)" stroke-width="0.5" stroke-miterlimit="10" x1="1163.25" y1="43.192" x2="1089.819" y2="15.081"/>
<linearGradient id="SVGID_4_" gradientUnits="userSpaceOnUse" x1="-44.8589" y1="-112.7705" x2="-44.8589" y2="-74.4326" gradientTransform="matrix(1 -4.000000e-004 4.000000e-004 1 1131.894 127.7986)">
	<stop  offset="0" style="stop-color:#FFFFFF"/>
	<stop  offset="1" style="stop-color:#FFFFFF;stop-opacity:0"/>
</linearGradient>
<line fill="none" stroke="url(#SVGID_4_)" stroke-width="0.5" stroke-miterlimit="10" x1="1084.176" y1="53.348" x2="1089.819" y2="15.081"/>
<linearGradient id="SVGID_5_" gradientUnits="userSpaceOnUse" x1="58.2822" y1="-46.6602" x2="58.2822" y2="42.917" gradientTransform="matrix(1 -4.000000e-004 4.000000e-004 1 1131.894 127.7986)">
	<stop  offset="0" style="stop-color:#FFFFFF"/>
	<stop  offset="1" style="stop-color:#FFFFFF;stop-opacity:0"/>
</linearGradient>
<line fill="none" stroke="url(#SVGID_5_)" stroke-width="0.5" stroke-miterlimit="10" x1="1189.616" y1="170.688" x2="1190.734" y2="81.118"/>
<linearGradient id="SVGID_6_" gradientUnits="userSpaceOnUse" x1="33.5732" y1="-2.8594" x2="33.5732" y2="99.2803" gradientTransform="matrix(1 -4.000000e-004 4.000000e-004 1 1131.894 127.7986)">
	<stop  offset="0" style="stop-color:#FFFFFF;stop-opacity:0.5"/>
	<stop  offset="1" style="stop-color:#FFFFFF;stop-opacity:0"/>
</linearGradient>
<line fill="none" stroke="url(#SVGID_6_)" stroke-width="0.25" stroke-miterlimit="10" x1="1131.193" y1="227.008" x2="1199.78" y2="124.981"/>
<linearGradient id="SVGID_7_" gradientUnits="userSpaceOnUse" x1="933.8203" y1="-3412.4409" x2="933.8203" y2="-3325.2515" gradientTransform="matrix(-0.7919 0.6107 -0.6107 -0.7919 -136.3473 -3153.9871)">
	<stop  offset="0" style="stop-color:#FFFFFF"/>
	<stop  offset="1" style="stop-color:#FFFFFF;stop-opacity:0"/>
</linearGradient>
<line fill="none" stroke="url(#SVGID_7_)" stroke-width="0.5" stroke-miterlimit="10" x1="1163.25" y1="43.192" x2="1199.78" y2="124.981"/>
<linearGradient id="SVGID_8_" gradientUnits="userSpaceOnUse" x1="1303.3223" y1="-3343.4189" x2="1303.3223" y2="-3263.5645" gradientTransform="matrix(-0.7142 0.7 -0.7 -0.7142 -363.4244 -3073.5078)">
	<stop  offset="0" style="stop-color:#FFFFFF;stop-opacity:0.5"/>
	<stop  offset="1" style="stop-color:#FFFFFF;stop-opacity:0"/>
</linearGradient>
<line fill="none" stroke="url(#SVGID_8_)" stroke-width="0.25" stroke-miterlimit="10" x1="989.877" y1="170.013" x2="1046.498" y2="226.332"/>
<linearGradient id="SVGID_9_" gradientUnits="userSpaceOnUse" x1="30.188" y1="-84.6089" x2="30.188" y2="-45.8735" gradientTransform="matrix(1 -4.000000e-004 4.000000e-004 1 1131.894 127.7986)">
	<stop  offset="0" style="stop-color:#FFFFFF"/>
	<stop  offset="1" style="stop-color:#FFFFFF;stop-opacity:0"/>
</linearGradient>
<line fill="none" stroke="url(#SVGID_9_)" stroke-width="0.5" stroke-miterlimit="10" x1="1160.861" y1="81.897" x2="1163.25" y2="43.192"/>
<linearGradient id="SVGID_10_" gradientUnits="userSpaceOnUse" x1="1695.0732" y1="-1595.3989" x2="1695.0732" y2="-1484.0767" gradientTransform="matrix(0.1908 0.9817 -0.9817 0.1908 -730.1283 -1336.2246)">
	<stop  offset="0" style="stop-color:#FFFFFF"/>
	<stop  offset="1" style="stop-color:#FFFFFF;stop-opacity:0"/>
</linearGradient>
<line fill="none" stroke="url(#SVGID_10_)" stroke-width="0.5" stroke-miterlimit="10" x1="1046.455" y1="24.903" x2="1163.25" y2="43.192"/>
<linearGradient id="SVGID_11_" gradientUnits="userSpaceOnUse" x1="-1709.6343" y1="-2957.3623" x2="-1709.6343" y2="-2844.0273" gradientTransform="matrix(-0.5532 -0.8331 0.8331 -0.5532 2577.5747 -2814.4468)">
	<stop  offset="0" style="stop-color:#FFFFFF"/>
	<stop  offset="1" style="stop-color:#FFFFFF;stop-opacity:0"/>
</linearGradient>
<line fill="none" stroke="url(#SVGID_11_)" stroke-width="0.5" stroke-miterlimit="10" x1="1167.043" y1="203.004" x2="1046.507" y2="226.021"/>
<linearGradient id="SVGID_12_" gradientUnits="userSpaceOnUse" x1="-132.064" y1="-78.8965" x2="-132.064" y2="41.5264" gradientTransform="matrix(1 -4.000000e-004 4.000000e-004 1 1131.894 127.7986)">
	<stop  offset="0" style="stop-color:#FFFFFF"/>
	<stop  offset="1" style="stop-color:#FFFFFF;stop-opacity:0"/>
</linearGradient>
<line fill="none" stroke="url(#SVGID_12_)" stroke-width="0.5" stroke-miterlimit="10" x1="989.201" y1="169.338" x2="1010.444" y2="48.994"/>
<linearGradient id="SVGID_13_" gradientUnits="userSpaceOnUse" x1="51.4727" y1="-2.5879" x2="51.4727" y2="75.3174" gradientTransform="matrix(1 -4.000000e-004 4.000000e-004 1 1131.894 127.7986)">
	<stop  offset="0" style="stop-color:#FFFFFF"/>
	<stop  offset="1" style="stop-color:#FFFFFF;stop-opacity:0"/>
</linearGradient>
<line fill="none" stroke="url(#SVGID_13_)" stroke-width="0.5" stroke-miterlimit="10" x1="1167.043" y1="203.004" x2="1199.72" y2="125.28"/>
<linearGradient id="SVGID_14_" gradientUnits="userSpaceOnUse" x1="-568.9556" y1="-3682.6431" x2="-568.9556" y2="-3643.0566" gradientTransform="matrix(-0.9736 -0.2283 0.2283 -0.9736 1399.149 -3475.1548)">
	<stop  offset="0" style="stop-color:#FFFFFF"/>
	<stop  offset="1" style="stop-color:#FFFFFF;stop-opacity:0"/>
</linearGradient>
<line fill="none" stroke="url(#SVGID_14_)" stroke-width="0.5" stroke-miterlimit="10" x1="1144.568" y1="207.255" x2="1089.144" y2="234.521"/>
<linearGradient id="SVGID_15_" gradientUnits="userSpaceOnUse" x1="841.4316" y1="-3492.439" x2="841.4316" y2="-3470.8647" gradientTransform="matrix(-0.8618 0.5073 -0.5073 -0.8618 56.2643 -3209.7009)">
	<stop  offset="0" style="stop-color:#FFFFFF;stop-opacity:0.5"/>
	<stop  offset="1" style="stop-color:#FFFFFF;stop-opacity:0"/>
</linearGradient>
<line fill="none" stroke="url(#SVGID_15_)" stroke-width="0.25" stroke-miterlimit="10" x1="1105.58" y1="200.41" x2="1089.144" y2="234.881"/>
<linearGradient id="SVGID_16_" gradientUnits="userSpaceOnUse" x1="1828.6289" y1="-1963.5073" x2="1828.6289" y2="-1885.6948" gradientTransform="matrix(-0.0489 0.9988 -0.9988 -0.0489 -781.8264 -1701.3962)">
	<stop  offset="0" style="stop-color:#FFFFFF"/>
	<stop  offset="1" style="stop-color:#FFFFFF;stop-opacity:0"/>
</linearGradient>
<line fill="none" stroke="url(#SVGID_16_)" stroke-width="0.5" stroke-miterlimit="10" x1="1012.946" y1="203.419" x2="1089.144" y2="234.881"/>
<linearGradient id="SVGID_17_" gradientUnits="userSpaceOnUse" x1="1775.1768" y1="-1461.3784" x2="1775.1768" y2="-1376.8574" gradientTransform="matrix(0.2014 0.9795 -0.9795 0.2014 -708.0371 -1250.5276)">
	<stop  offset="0" style="stop-color:#FFFFFF"/>
	<stop  offset="1" style="stop-color:#FFFFFF;stop-opacity:0"/>
</linearGradient>
<line fill="none" stroke="url(#SVGID_17_)" stroke-width="0.5" stroke-miterlimit="10" x1="989.877" y1="170.013" x2="1089.144" y2="234.881"/>
<linearGradient id="SVGID_18_" gradientUnits="userSpaceOnUse" x1="-413.1299" y1="-3601.4053" x2="-413.1299" y2="-3556.6929" gradientTransform="matrix(-0.9736 -0.2283 0.2283 -0.9736 1399.149 -3475.1548)">
	<stop  offset="0" style="stop-color:#FFFFFF"/>
	<stop  offset="1" style="stop-color:#FFFFFF;stop-opacity:0"/>
</linearGradient>
<line fill="none" stroke="url(#SVGID_18_)" stroke-width="0.5" stroke-miterlimit="10" x1="988.632" y1="81.792" x2="979.92" y2="125.657"/>
<linearGradient id="SVGID_19_" gradientUnits="userSpaceOnUse" x1="-426.6162" y1="-3601.4795" x2="-426.6162" y2="-3529.0767" gradientTransform="matrix(-0.9736 -0.2283 0.2283 -0.9736 1399.149 -3475.1548)">
	<stop  offset="0" style="stop-color:#FFFFFF"/>
	<stop  offset="1" style="stop-color:#FFFFFF;stop-opacity:0"/>
</linearGradient>
<line fill="none" stroke="url(#SVGID_19_)" stroke-width="0.5" stroke-miterlimit="10" x1="1021.181" y1="61.136" x2="979.92" y2="125.657"/>
<linearGradient id="SVGID_20_" gradientUnits="userSpaceOnUse" x1="-1836.1836" y1="-2252.8921" x2="-1836.1836" y2="-2239.229" gradientTransform="matrix(-0.2483 -0.9687 0.9687 -0.2483 2716.6055 -2171.5322)">
	<stop  offset="0" style="stop-color:#FFFFFF"/>
	<stop  offset="1" style="stop-color:#FFFFFF;stop-opacity:0"/>
</linearGradient>
<line fill="none" stroke="url(#SVGID_20_)" stroke-width="0.5" stroke-miterlimit="10" x1="1013.621" y1="204.094" x2="979.92" y2="125.657"/>
<linearGradient id="SVGID_21_" gradientUnits="userSpaceOnUse" x1="760.9248" y1="-33.2021" x2="760.9248" y2="-15.0596" gradientTransform="matrix(0.9222 0.3868 -0.3868 0.9222 282.502 -131.0665)">
	<stop  offset="0" style="stop-color:#FFFFFF"/>
	<stop  offset="1" style="stop-color:#FFFFFF;stop-opacity:0"/>
</linearGradient>
<line fill="none" stroke="url(#SVGID_21_)" stroke-width="0.5" stroke-miterlimit="10" x1="979.837" y1="125.657" x2="1007.283" y2="156.354"/>
<linearGradient id="SVGID_22_" gradientUnits="userSpaceOnUse" x1="-142.9766" y1="-46.0645" x2="-142.9766" y2="41.4844" gradientTransform="matrix(1 -4.000000e-004 4.000000e-004 1 1131.894 127.7986)">
	<stop  offset="0" style="stop-color:#FFFFFF"/>
	<stop  offset="1" style="stop-color:#FFFFFF;stop-opacity:0"/>
</linearGradient>
<line fill="none" stroke="url(#SVGID_22_)" stroke-width="0.5" stroke-miterlimit="10" x1="989.201" y1="169.338" x2="988.632" y2="81.792"/>
<linearGradient id="SVGID_23_" gradientUnits="userSpaceOnUse" x1="-1310.0044" y1="-609.9731" x2="-1310.0044" y2="-560.5337" gradientTransform="matrix(0.7128 -0.7014 0.7014 0.7128 2414.5703 -466.9734)">
	<stop  offset="0" style="stop-color:#FFFFFF"/>
	<stop  offset="1" style="stop-color:#FFFFFF;stop-opacity:0"/>
</linearGradient>
<line fill="none" stroke="url(#SVGID_23_)" stroke-width="0.5" stroke-miterlimit="10" x1="1094.773" y1="45.165" x2="1045.831" y2="24.227"/>
<linearGradient id="SVGID_24_" gradientUnits="userSpaceOnUse" x1="-95.146" y1="-103.709" x2="-95.146" y2="-63.4531" gradientTransform="matrix(1 -4.000000e-004 4.000000e-004 1 1131.894 127.7986)">
	<stop  offset="0" style="stop-color:#FFFFFF"/>
	<stop  offset="1" style="stop-color:#FFFFFF;stop-opacity:0"/>
</linearGradient>
<line fill="none" stroke="url(#SVGID_24_)" stroke-width="0.5" stroke-miterlimit="10" x1="1027.648" y1="64.284" x2="1045.78" y2="24.227"/>
<linearGradient id="SVGID_25_" gradientUnits="userSpaceOnUse" x1="666.9531" y1="-3649.6353" x2="666.9531" y2="-3604.0894" gradientTransform="matrix(-0.8922 0.4518 -0.4518 -0.8922 127.2488 -3361.4878)">
	<stop  offset="0" style="stop-color:#FFFFFF"/>
	<stop  offset="1" style="stop-color:#FFFFFF;stop-opacity:0"/>
</linearGradient>
<line fill="none" stroke="url(#SVGID_25_)" stroke-width="0.5" stroke-miterlimit="10" x1="1174.578" y1="148.451" x2="1167.043" y2="203.004"/>
<linearGradient id="SVGID_26_" gradientUnits="userSpaceOnUse" x1="-599.0225" y1="-3665.7051" x2="-599.0225" y2="-3633.8101" gradientTransform="matrix(-0.9736 -0.2283 0.2283 -0.9736 1399.149 -3475.1548)">
	<stop  offset="0" style="stop-color:#FFFFFF"/>
	<stop  offset="1" style="stop-color:#FFFFFF;stop-opacity:0"/>
</linearGradient>
<line fill="none" stroke="url(#SVGID_26_)" stroke-width="0.5" stroke-miterlimit="10" x1="1167.043" y1="203.004" x2="1131.193" y2="227.008"/>
<linearGradient id="SVGID_27_" gradientUnits="userSpaceOnUse" x1="882.5166" y1="-3453.8252" x2="882.5166" y2="-3433.0977" gradientTransform="matrix(-0.843 0.538 -0.538 -0.843 30.2374 -3167.5615)">
	<stop  offset="0" style="stop-color:#FFFFFF"/>
	<stop  offset="1" style="stop-color:#FFFFFF;stop-opacity:0"/>
</linearGradient>
<line fill="none" stroke="url(#SVGID_27_)" stroke-width="0.5" stroke-miterlimit="10" x1="1146.523" y1="193.132" x2="1131.193" y2="227.008"/>
<linearGradient id="SVGID_28_" gradientUnits="userSpaceOnUse" x1="1663.5127" y1="-1040.897" x2="1663.5127" y2="-1015.3188" gradientTransform="matrix(0.4197 0.9077 -0.9077 0.4197 -516.7295 -856.9517)">
	<stop  offset="0" style="stop-color:#FFFFFF;stop-opacity:0.5"/>
	<stop  offset="1" style="stop-color:#FFFFFF;stop-opacity:0"/>
</linearGradient>
<line fill="none" stroke="url(#SVGID_28_)" stroke-width="0.25" stroke-miterlimit="10" x1="1098.128" y1="216.038" x2="1131.193" y2="227.008"/>
<linearGradient id="SVGID_29_" gradientUnits="userSpaceOnUse" x1="1697.5449" y1="-971.2568" x2="1697.5449" y2="-934.8809" gradientTransform="matrix(0.4922 0.8705 -0.8705 0.4922 -491.1157 -829.9449)">
	<stop  offset="0" style="stop-color:#FFFFFF;stop-opacity:0.5"/>
	<stop  offset="1" style="stop-color:#FFFFFF;stop-opacity:0"/>
</linearGradient>
<line fill="none" stroke="url(#SVGID_29_)" stroke-width="0.25" stroke-miterlimit="10" x1="1158.064" y1="187.324" x2="1190.06" y2="170.013"/>
<linearGradient id="SVGID_30_" gradientUnits="userSpaceOnUse" x1="1488.3574" y1="-3079.7046" x2="1488.3574" y2="-3050.8276" gradientTransform="matrix(-0.6089 0.7932 -0.7932 -0.6089 -340.695 -2892.5532)">
	<stop  offset="0" style="stop-color:#FFFFFF"/>
	<stop  offset="1" style="stop-color:#FFFFFF;stop-opacity:0"/>
</linearGradient>
<line fill="none" stroke="url(#SVGID_30_)" stroke-width="0.5" stroke-miterlimit="10" x1="1178.318" y1="138.892" x2="1190.506" y2="170.013"/>
<linearGradient id="SVGID_31_" gradientUnits="userSpaceOnUse" x1="-135.021" y1="-3707.5132" x2="-135.021" y2="-3688.3633" gradientTransform="matrix(-1 4.000000e-004 -4.000000e-004 -1 921.9044 -3481.2461)">
	<stop  offset="0" style="stop-color:#FFFFFF"/>
	<stop  offset="1" style="stop-color:#FFFFFF;stop-opacity:0"/>
</linearGradient>
<line fill="none" stroke="url(#SVGID_31_)" stroke-width="0.5" stroke-miterlimit="10" x1="1070.303" y1="207.255" x2="1046.507" y2="226.021"/>
<linearGradient id="SVGID_32_" gradientUnits="userSpaceOnUse" x1="24.1484" y1="-84.6934" x2="24.1484" y2="-51.2744" gradientTransform="matrix(1 -4.000000e-004 4.000000e-004 1 1131.894 127.7986)">
	<stop  offset="0" style="stop-color:#FFFFFF"/>
	<stop  offset="1" style="stop-color:#FFFFFF;stop-opacity:0"/>
</linearGradient>
<line fill="none" stroke="url(#SVGID_32_)" stroke-width="0.5" stroke-miterlimit="10" x1="1148.78" y1="76.417" x2="1163.25" y2="43.192"/>
<linearGradient id="SVGID_33_" gradientUnits="userSpaceOnUse" x1="924.0313" y1="-3372.0991" x2="924.0313" y2="-3325.3022" gradientTransform="matrix(-0.7919 0.6107 -0.6107 -0.7919 -136.3473 -3153.9871)">
	<stop  offset="0" style="stop-color:#FFFFFF"/>
	<stop  offset="1" style="stop-color:#FFFFFF;stop-opacity:0"/>
</linearGradient>
<line fill="none" stroke="url(#SVGID_33_)" stroke-width="0.5" stroke-miterlimit="10" x1="1163.25" y1="43.192" x2="1190.678" y2="81.118"/>
<linearGradient id="SVGID_34_" gradientUnits="userSpaceOnUse" x1="1475.582" y1="-2810.5869" x2="1475.582" y2="-2777.9502" gradientTransform="matrix(-0.4641 0.8858 -0.8858 -0.4641 -614.022 -2530.4705)">
	<stop  offset="0" style="stop-color:#FFFFFF"/>
	<stop  offset="1" style="stop-color:#FFFFFF;stop-opacity:0"/>
</linearGradient>
<line fill="none" stroke="url(#SVGID_34_)" stroke-width="0.5" stroke-miterlimit="10" x1="1161.913" y1="65.765" x2="1190.734" y2="81.075"/>
<linearGradient id="SVGID_35_" gradientUnits="userSpaceOnUse" x1="10.9736" y1="-105.3853" x2="10.9736" y2="-71.0298" gradientTransform="matrix(1 -4.000000e-004 4.000000e-004 1 1131.894 127.7986)">
	<stop  offset="0" style="stop-color:#FFFFFF"/>
	<stop  offset="1" style="stop-color:#FFFFFF;stop-opacity:0"/>
</linearGradient>
<line fill="none" stroke="url(#SVGID_35_)" stroke-width="0.5" stroke-miterlimit="10" x1="1155.82" y1="56.607" x2="1129.845" y2="22.565"/>
<linearGradient id="SVGID_36_" gradientUnits="userSpaceOnUse" x1="1431.0527" y1="-916.7329" x2="1431.0527" y2="-878.0049" gradientTransform="matrix(0.5763 0.8172 -0.8172 0.5763 -449.9823 -624.937)">
	<stop  offset="0" style="stop-color:#FFFFFF"/>
	<stop  offset="1" style="stop-color:#FFFFFF;stop-opacity:0"/>
</linearGradient>
<line fill="none" stroke="url(#SVGID_36_)" stroke-width="0.5" stroke-miterlimit="10" x1="1087.403" y1="31.494" x2="1128.724" y2="23.24"/>
<linearGradient id="SVGID_37_" gradientUnits="userSpaceOnUse" x1="-1827.522" y1="-1645.3047" x2="-1827.522" y2="-1634.5791" gradientTransform="matrix(0.0301 -0.9996 0.9996 0.0301 2688.9502 -1618.5684)">
	<stop  offset="0" style="stop-color:#FFFFFF"/>
	<stop  offset="1" style="stop-color:#FFFFFF;stop-opacity:0"/>
</linearGradient>
<line fill="none" stroke="url(#SVGID_37_)" stroke-width="0.5" stroke-miterlimit="10" x1="989.201" y1="169.338" x2="1000.112" y2="148.382"/>
<linearGradient id="SVGID_38_" gradientUnits="userSpaceOnUse" x1="-913.9604" y1="-77.3667" x2="-913.9604" y2="-62.8462" gradientTransform="matrix(0.8501 -0.5266 0.5266 0.8501 1840.6348 -218.2744)">
	<stop  offset="0" style="stop-color:#FFFFFF;stop-opacity:0.5"/>
	<stop  offset="1" style="stop-color:#FFFFFF;stop-opacity:0"/>
</linearGradient>
<line fill="none" stroke="url(#SVGID_38_)" stroke-width="0.25" stroke-miterlimit="10" x1="1012.946" y1="203.561" x2="1040.57" y2="203.278"/>
<linearGradient id="SVGID_39_" gradientUnits="userSpaceOnUse" x1="1310.9961" y1="-3303.3184" x2="1310.9961" y2="-3303.3184" gradientTransform="matrix(-0.7142 0.7 -0.7 -0.7142 -363.4244 -3073.5078)">
	<stop  offset="0.2477" style="stop-color:#FFFFFF;stop-opacity:0"/>
	<stop  offset="1" style="stop-color:#FFFFFF;stop-opacity:0.2"/>
</linearGradient>
<linearGradient id="SVGID_40_" gradientUnits="userSpaceOnUse" x1="1310.9961" y1="-3303.3184" x2="1310.9961" y2="-3303.3184" gradientTransform="matrix(-0.7142 0.7 -0.7 -0.7142 -363.4244 -3073.5078)">
	<stop  offset="0" style="stop-color:#FFFFFF;stop-opacity:0.5"/>
	<stop  offset="1" style="stop-color:#FFFFFF;stop-opacity:0"/>
</linearGradient>
<path fill="url(#SVGID_39_)" stroke="url(#SVGID_40_)" stroke-width="0.25" stroke-miterlimit="10" d="M1012.585,203.419"/>
<linearGradient id="SVGID_41_" gradientUnits="userSpaceOnUse" x1="1303.8408" y1="-3262.6123" x2="1303.8408" y2="-3262.6123" gradientTransform="matrix(-0.7142 0.7 -0.7 -0.7142 -363.4244 -3073.5078)">
	<stop  offset="0.2477" style="stop-color:#FFFFFF;stop-opacity:0"/>
	<stop  offset="1" style="stop-color:#FFFFFF;stop-opacity:0.2"/>
</linearGradient>
<linearGradient id="SVGID_42_" gradientUnits="userSpaceOnUse" x1="1303.8408" y1="-3262.6123" x2="1303.8408" y2="-3262.6123" gradientTransform="matrix(-0.7142 0.7 -0.7 -0.7142 -363.4244 -3073.5078)">
	<stop  offset="0" style="stop-color:#FFFFFF;stop-opacity:0.5"/>
	<stop  offset="1" style="stop-color:#FFFFFF;stop-opacity:0"/>
</linearGradient>
<path fill="url(#SVGID_41_)" stroke="url(#SVGID_42_)" stroke-width="0.25" stroke-miterlimit="10" d="M989.201,169.338"/>
<linearGradient id="SVGID_43_" gradientUnits="userSpaceOnUse" x1="-1356.3696" y1="-617.1167" x2="-1356.3696" y2="-598.314" gradientTransform="matrix(0.7128 -0.7014 0.7014 0.7128 2414.5703 -466.9734)">
	<stop  offset="0" style="stop-color:#FFFFFF;stop-opacity:0.5"/>
	<stop  offset="1" style="stop-color:#FFFFFF;stop-opacity:0"/>
</linearGradient>
<line fill="none" stroke="url(#SVGID_43_)" stroke-width="0.25" stroke-miterlimit="10" x1="1032.234" y1="53.739" x2="1010.763" y2="48.672"/>
<linearGradient id="SVGID_44_" gradientUnits="userSpaceOnUse" x1="-275.3945" y1="-115.5327" x2="-275.3945" y2="-93.2651" gradientTransform="matrix(0.9945 -0.1047 0.1047 0.9945 1300.9417 134.2487)">
	<stop  offset="0" style="stop-color:#FFFFFF;stop-opacity:0.5"/>
	<stop  offset="1" style="stop-color:#FFFFFF;stop-opacity:0"/>
</linearGradient>
<line fill="none" stroke="url(#SVGID_44_)" stroke-width="0.25" stroke-miterlimit="10" x1="1021.499" y1="69.844" x2="1010.763" y2="48.672"/>
<linearGradient id="SVGID_45_" gradientUnits="userSpaceOnUse" x1="-1393.0659" y1="-608.7148" x2="-1393.0659" y2="-600.6553" gradientTransform="matrix(0.7128 -0.7014 0.7014 0.7128 2414.5703 -466.9734)">
	<stop  offset="0" style="stop-color:#FFFFFF;stop-opacity:0.5"/>
	<stop  offset="1" style="stop-color:#FFFFFF;stop-opacity:0"/>
</linearGradient>
<line fill="none" stroke="url(#SVGID_45_)" stroke-width="0.25" stroke-miterlimit="10" x1="1005.785" y1="76.417" x2="989.148" y2="81.792"/>
<linearGradient id="SVGID_46_" gradientUnits="userSpaceOnUse" x1="-1398.4321" y1="-609.0078" x2="-1398.4321" y2="-593.2461" gradientTransform="matrix(0.7128 -0.7014 0.7014 0.7128 2414.5703 -466.9734)">
	<stop  offset="0" style="stop-color:#FFFFFF;stop-opacity:0.5"/>
	<stop  offset="1" style="stop-color:#FFFFFF;stop-opacity:0"/>
</linearGradient>
<line fill="none" stroke="url(#SVGID_46_)" stroke-width="0.25" stroke-miterlimit="10" x1="1003.643" y1="89.016" x2="988.632" y2="81.792"/>
<linearGradient id="SVGID_47_" gradientUnits="userSpaceOnUse" x1="-1105.0615" y1="-396.1479" x2="-1105.0615" y2="-378.9985" gradientTransform="matrix(0.8278 -0.561 0.561 0.8278 2179.6787 -265.7933)">
	<stop  offset="0" style="stop-color:#FFFFFF"/>
	<stop  offset="1" style="stop-color:#FFFFFF;stop-opacity:0"/>
</linearGradient>
<line fill="none" stroke="url(#SVGID_47_)" stroke-width="0.5" stroke-miterlimit="10" x1="1049.18" y1="42.399" x2="1045.78" y2="24.227"/>
<linearGradient id="SVGID_48_" gradientUnits="userSpaceOnUse" x1="50.2261" y1="-46.7554" x2="50.2261" y2="-6.4302" gradientTransform="matrix(1 -4.000000e-004 4.000000e-004 1 1131.894 127.7986)">
	<stop  offset="0" style="stop-color:#FFFFFF"/>
	<stop  offset="1" style="stop-color:#FFFFFF;stop-opacity:0"/>
</linearGradient>
<line fill="none" stroke="url(#SVGID_48_)" stroke-width="0.5" stroke-miterlimit="10" x1="1173.484" y1="121.252" x2="1190.734" y2="81.118"/>
<linearGradient id="SVGID_49_" gradientUnits="userSpaceOnUse" x1="1456.5303" y1="-2774.3315" x2="1456.5303" y2="-2760.3813" gradientTransform="matrix(-0.5491 0.8357 -0.8357 -0.5491 -499.6481 -2546.2366)">
	<stop  offset="0" style="stop-color:#FFFFFF"/>
	<stop  offset="1" style="stop-color:#FFFFFF;stop-opacity:0"/>
</linearGradient>
<line fill="none" stroke="url(#SVGID_49_)" stroke-width="0.5" stroke-miterlimit="10" x1="1013.621" y1="177.665" x2="1012.88" y2="203.419"/>
<linearGradient id="SVGID_50_" gradientUnits="userSpaceOnUse" x1="1449.6973" y1="-2960.4009" x2="1449.6973" y2="-2941.5747" gradientTransform="matrix(-0.574 0.8189 -0.8189 -0.574 -496.7412 -2660.3164)">
	<stop  offset="0" style="stop-color:#FFFFFF;stop-opacity:0.5"/>
	<stop  offset="1" style="stop-color:#FFFFFF;stop-opacity:0"/>
</linearGradient>
<line fill="none" stroke="url(#SVGID_50_)" stroke-width="0.25" stroke-miterlimit="10" x1="1086.253" y1="206.536" x2="1089.144" y2="234.881"/>
<linearGradient id="SVGID_51_" gradientUnits="userSpaceOnUse" x1="1846.6113" y1="-2251.8164" x2="1846.6113" y2="-2229.6436" gradientTransform="matrix(-0.1641 0.9865 -0.9865 -0.1641 -717.5128 -2072.4126)">
	<stop  offset="0" style="stop-color:#FFFFFF"/>
	<stop  offset="1" style="stop-color:#FFFFFF;stop-opacity:0"/>
</linearGradient>
<line fill="none" stroke="url(#SVGID_51_)" stroke-width="0.5" stroke-miterlimit="10" x1="1180.157" y1="108.965" x2="1199.72" y2="124.981"/>
<linearGradient id="SVGID_52_" gradientUnits="userSpaceOnUse" x1="1709.749" y1="-935.0645" x2="1709.749" y2="-922.4282" gradientTransform="matrix(0.4922 0.8705 -0.8705 0.4922 -491.1157 -829.9449)">
	<stop  offset="0" style="stop-color:#FFFFFF;stop-opacity:0.5"/>
	<stop  offset="1" style="stop-color:#FFFFFF;stop-opacity:0"/>
</linearGradient>
<line fill="none" stroke="url(#SVGID_52_)" stroke-width="0.25" stroke-miterlimit="10" x1="1150.749" y1="199.523" x2="1167.043" y2="203.004"/>
<linearGradient id="SVGID_53_" gradientUnits="userSpaceOnUse" x1="1459.7969" y1="-2814.7788" x2="1459.7969" y2="-2797.9683" gradientTransform="matrix(-0.5491 0.8357 -0.8357 -0.5491 -499.6481 -2546.2366)">
	<stop  offset="0" style="stop-color:#FFFFFF;stop-opacity:0.5"/>
	<stop  offset="1" style="stop-color:#FFFFFF;stop-opacity:0"/>
</linearGradient>
<line fill="none" stroke="url(#SVGID_53_)" stroke-width="0.25" stroke-miterlimit="10" x1="1041.615" y1="203.278" x2="1046.513" y2="226.115"/>
<linearGradient id="SVGID_54_" gradientUnits="userSpaceOnUse" x1="0.0229" y1="-105.2554" x2="0.0229" y2="-83.5591" gradientTransform="matrix(1 -4.000000e-004 4.000000e-004 1 1131.894 127.7986)">
	<stop  offset="0" style="stop-color:#FFFFFF;stop-opacity:0.5"/>
	<stop  offset="1" style="stop-color:#FFFFFF;stop-opacity:0"/>
</linearGradient>
<line fill="none" stroke="url(#SVGID_54_)" stroke-width="0.25" stroke-miterlimit="10" x1="1133.792" y1="44.217" x2="1129.967" y2="22.565"/>
<g>
	<path fill="#FFFFFF" d="M1081.325,106.169c0-3.378-0.547-5.516-1.643-6.415c-1.092-0.9-3.3-1.35-6.621-1.35v-1.536h24.372v1.536
		c-3.486,0.111-5.718,0.666-6.685,1.658c-0.969,0.998-1.453,3.352-1.453,7.061v35.793c0,3.709,0.484,6.063,1.453,7.059
		c0.967,0.998,3.196,1.553,6.685,1.661v1.538h-24.37v-1.538c3.569-0.108,5.841-0.671,6.813-1.683
		c0.963-1.01,1.449-3.356,1.449-7.037v-32.305l-26.117,33.467c0.028,2.409,0.188,4.021,0.479,4.838
		c0.29,0.817,0.971,1.459,2.034,1.934c1.065,0.469,2.954,0.731,5.67,0.786v1.538H1039.1v-1.538c3.488-0.108,5.715-0.663,6.688-1.661
		c0.97-0.996,1.45-3.35,1.45-7.059v-35.793c0-3.709-0.48-6.063-1.45-7.061c-0.974-0.997-3.198-1.547-6.688-1.658v-1.536h24.292
		v1.536c-3.52,0.111-5.759,0.666-6.729,1.658c-0.97,0.998-1.452,3.352-1.452,7.061v32.43L1081.325,106.169z"/>
	<path fill="#FFFFFF" d="M1150.165,95.583l1.289,19.14h-1.289c-1.717-5.73-4.164-9.856-7.349-12.374
		c-3.185-2.517-7.005-3.78-11.459-3.78c-3.736,0-7.117,0.949-10.134,2.846c-3.015,1.897-5.39,4.92-7.119,9.072
		c-1.729,4.152-2.596,9.314-2.596,15.488c0,5.096,0.815,9.51,2.448,13.246c1.635,3.737,4.094,6.604,7.371,8.595
		c3.279,1.99,7.021,2.988,11.231,2.988c3.654,0,6.877-0.783,9.672-2.345c2.799-1.563,5.868-4.67,9.221-9.322l1.284,0.83
		c-2.821,5.009-6.116,8.679-9.882,11.006c-3.766,2.322-8.232,3.484-13.407,3.484c-9.328,0-16.558-3.461-21.677-10.381
		c-3.816-5.149-5.729-11.211-5.729-18.186c0-5.621,1.26-10.782,3.777-15.488c2.518-4.705,5.986-8.354,10.398-10.942
		c4.416-2.584,9.239-3.877,14.474-3.877c4.066,0,8.081,0.994,12.038,2.985c1.163,0.61,1.995,0.915,2.492,0.915
		c0.747,0,1.396-0.266,1.951-0.792c0.719-0.747,1.229-1.782,1.536-3.112h1.452v0.004H1150.165z"/>
	<path fill="#FFFFFF" d="M1274.303,106.169c0-3.378-0.545-5.516-1.638-6.415c-1.095-0.9-3.304-1.35-6.624-1.35v-1.536h24.37v1.536
		c-3.484,0.111-5.716,0.666-6.683,1.658c-0.969,0.998-1.449,3.352-1.449,7.061v35.793c0,3.709,0.48,6.063,1.449,7.059
		c0.967,0.998,3.197,1.553,6.683,1.661v1.538h-24.37v-1.538c3.57-0.108,5.841-0.671,6.81-1.683c0.972-1.01,1.452-3.356,1.452-7.037
		v-32.305l-26.114,33.467c0.027,2.409,0.188,4.021,0.479,4.838c0.29,0.817,0.969,1.459,2.034,1.934
		c1.064,0.469,2.957,0.731,5.668,0.786v1.538h-24.288v-1.538c3.489-0.108,5.715-0.663,6.687-1.661
		c0.968-0.996,1.448-3.35,1.448-7.059v-35.793c0-3.709-0.48-6.063-1.448-7.061c-0.972-0.997-3.195-1.547-6.687-1.658v-1.536h24.288
		v1.536c-3.517,0.111-5.756,0.666-6.728,1.658c-0.968,0.998-1.452,3.352-1.452,7.061v32.43L1274.303,106.169z"/>
	<path fill="#FFFFFF" d="M1330.854,134.321h-21.798l-3.818,8.889c-0.94,2.186-1.409,3.817-1.409,4.896
		c0,0.86,0.406,1.612,1.225,2.267c0.814,0.65,2.581,1.07,5.291,1.265v1.538h-17.729v-1.538c2.353-0.417,3.877-0.958,4.567-1.619
		c1.409-1.328,2.977-4.027,4.69-8.097l19.805-46.337h1.455l19.599,46.833c1.578,3.768,3.011,6.211,4.299,7.331
		c1.285,1.122,3.076,1.75,5.378,1.889v1.538h-22.216v-1.538c2.239-0.108,3.759-0.485,4.549-1.121
		c0.787-0.636,1.184-1.412,1.184-2.327c0-1.216-0.557-3.141-1.662-5.771L1330.854,134.321z M1329.691,131.248l-9.551-22.753
		l-9.8,22.753H1329.691z"/>
	<path fill="#FFFFFF" d="M1380.222,95.583c7.31,0,13.643,2.774,18.994,8.325c5.355,5.548,8.034,12.475,8.034,20.781
		c0,8.553-2.696,15.652-8.094,21.3c-5.397,5.646-11.935,8.472-19.601,8.472c-7.751,0-14.262-2.758-19.534-8.264
		c-5.271-5.512-7.908-12.639-7.908-21.383c0-8.939,3.044-16.237,9.133-21.883C1366.534,98.031,1372.859,95.583,1380.222,95.583z
		 M1379.433,98.614c-5.036,0-9.08,1.867-12.125,5.604c-3.791,4.651-5.688,11.459-5.688,20.43c0,9.191,1.966,16.261,5.896,21.217
		c3.019,3.767,7.003,5.648,11.958,5.648c5.287,0,9.653-2.064,13.102-6.187c3.444-4.126,5.171-10.632,5.171-19.516
		c0-9.634-1.897-16.817-5.688-21.548C1389.012,100.496,1384.802,98.614,1379.433,98.614z"/>
</g>
<linearGradient id="SVGID_55_" gradientUnits="userSpaceOnUse" x1="2966.3506" y1="403.3438" x2="2950.0896" y2="386.7509" gradientTransform="matrix(0.0101 0.9999 -0.9999 0.0101 1474.9758 -2943.0444)">
	<stop  offset="0.2477" style="stop-color:#FFFFFF;stop-opacity:0"/>
	<stop  offset="1" style="stop-color:#FFFFFF;stop-opacity:0.1"/>
</linearGradient>
<linearGradient id="SVGID_56_" gradientUnits="userSpaceOnUse" x1="2952.0537" y1="391.1973" x2="2971.4465" y2="402.6563" gradientTransform="matrix(0.0101 0.9999 -0.9999 0.0101 1474.9758 -2943.0444)">
	<stop  offset="0" style="stop-color:#FFFFFF"/>
	<stop  offset="1" style="stop-color:#FFFFFF;stop-opacity:0"/>
</linearGradient>
<polyline fill="url(#SVGID_55_)" stroke="url(#SVGID_56_)" stroke-width="0.5" stroke-miterlimit="10" points="1112.439,37.891 
	1129.967,22.565 1089.819,15.081 "/>
<linearGradient id="SVGID_57_" gradientUnits="userSpaceOnUse" x1="-228.3301" y1="1589.5879" x2="-225.1331" y2="1565.4767" gradientTransform="matrix(0.608 -0.7939 0.7939 0.608 -53.3674 -1113.1207)">
	<stop  offset="0.2477" style="stop-color:#FFFFFF;stop-opacity:0"/>
	<stop  offset="1" style="stop-color:#FFFFFF;stop-opacity:0.1"/>
</linearGradient>
<linearGradient id="SVGID_58_" gradientUnits="userSpaceOnUse" x1="-225.1089" y1="1565.001" x2="-228.3751" y2="1589.635" gradientTransform="matrix(0.608 -0.7939 0.7939 0.608 -53.3674 -1113.1207)">
	<stop  offset="0" style="stop-color:#FFFFFF"/>
	<stop  offset="1" style="stop-color:#FFFFFF;stop-opacity:0"/>
</linearGradient>
<polyline fill="url(#SVGID_57_)" stroke="url(#SVGID_58_)" stroke-width="0.5" stroke-miterlimit="10" points="1078.814,22.565 
	1045.78,24.227 1059.238,45.165 "/>
<linearGradient id="SVGID_59_" gradientUnits="userSpaceOnUse" x1="2000.9365" y1="2107.5605" x2="1981.8755" y2="2068.6309" gradientTransform="matrix(0.8981 0.4397 -0.4397 0.8981 130.7805 -2680.583)">
	<stop  offset="0.2477" style="stop-color:#FFFFFF;stop-opacity:0"/>
	<stop  offset="1" style="stop-color:#FFFFFF;stop-opacity:0.1"/>
</linearGradient>
<linearGradient id="SVGID_60_" gradientUnits="userSpaceOnUse" x1="1981.5654" y1="2067.9492" x2="2000.9631" y2="2107.5667" gradientTransform="matrix(0.8981 0.4397 -0.4397 0.8981 130.7805 -2680.583)">
	<stop  offset="0" style="stop-color:#FFFFFF"/>
	<stop  offset="1" style="stop-color:#FFFFFF;stop-opacity:0"/>
</linearGradient>
<polyline fill="url(#SVGID_59_)" stroke="url(#SVGID_60_)" stroke-width="0.5" stroke-miterlimit="10" points="1013.621,92.029 
	1010.819,48.686 988.632,81.792 "/>
<linearGradient id="SVGID_61_" gradientUnits="userSpaceOnUse" x1="-424.8843" y1="871.4395" x2="-437.0115" y2="846.6708" gradientTransform="matrix(0.1396 -0.9902 0.9902 0.1396 202.8566 -424.4751)">
	<stop  offset="0.2477" style="stop-color:#FFFFFF;stop-opacity:0"/>
	<stop  offset="1" style="stop-color:#FFFFFF;stop-opacity:0.1"/>
</linearGradient>
<linearGradient id="SVGID_62_" gradientUnits="userSpaceOnUse" x1="-437.1973" y1="846.2666" x2="-424.8205" y2="871.5447" gradientTransform="matrix(0.1396 -0.9902 0.9902 0.1396 202.8566 -424.4751)">
	<stop  offset="0" style="stop-color:#FFFFFF"/>
	<stop  offset="1" style="stop-color:#FFFFFF;stop-opacity:0"/>
</linearGradient>
<polyline fill="url(#SVGID_61_)" stroke="url(#SVGID_62_)" stroke-width="0.5" stroke-miterlimit="10" points="1001.376,102.362 
	979.937,125.565 1005.932,135.255 "/>
<linearGradient id="SVGID_63_" gradientUnits="userSpaceOnUse" x1="344.2173" y1="2191.6826" x2="323.4183" y2="2180.229" gradientTransform="matrix(0.8759 -0.4824 0.4824 0.8759 -345.8202 -1567.604)">
	<stop  offset="0.2477" style="stop-color:#FFFFFF;stop-opacity:0"/>
	<stop  offset="1" style="stop-color:#FFFFFF;stop-opacity:0.1"/>
</linearGradient>
<linearGradient id="SVGID_64_" gradientUnits="userSpaceOnUse" x1="323.0342" y1="2179.9551" x2="344.4234" y2="2191.7339" gradientTransform="matrix(0.8759 -0.4824 0.4824 0.8759 -345.8202 -1567.604)">
	<stop  offset="0" style="stop-color:#FFFFFF"/>
	<stop  offset="1" style="stop-color:#FFFFFF;stop-opacity:0"/>
</linearGradient>
<polyline fill="url(#SVGID_63_)" stroke="url(#SVGID_64_)" stroke-width="0.5" stroke-miterlimit="10" points="1009.88,168.662 
	989.201,169.338 1012.946,203.419 "/>
<linearGradient id="SVGID_65_" gradientUnits="userSpaceOnUse" x1="-524.2158" y1="1196.9043" x2="-545.1089" y2="1185.3989" gradientTransform="matrix(0.3145 -0.9492 0.9492 0.3145 70.6058 -674.5012)">
	<stop  offset="0.2477" style="stop-color:#FFFFFF;stop-opacity:0"/>
	<stop  offset="1" style="stop-color:#FFFFFF;stop-opacity:0.1"/>
</linearGradient>
<linearGradient id="SVGID_66_" gradientUnits="userSpaceOnUse" x1="-545.4941" y1="1185.126" x2="-524.0108" y2="1196.9564" gradientTransform="matrix(0.3145 -0.9492 0.9492 0.3145 70.6058 -674.5012)">
	<stop  offset="0" style="stop-color:#FFFFFF"/>
	<stop  offset="1" style="stop-color:#FFFFFF;stop-opacity:0"/>
</linearGradient>
<polyline fill="url(#SVGID_65_)" stroke="url(#SVGID_66_)" stroke-width="0.5" stroke-miterlimit="10" points="1027.734,188.795 
	1012.946,203.422 1053.704,212.308 "/>
<linearGradient id="SVGID_67_" gradientUnits="userSpaceOnUse" x1="1007.377" y1="-1223.96" x2="985.4656" y2="-1253.0757" gradientTransform="matrix(-0.9926 -0.1212 0.1212 -0.9926 2173.9946 -896.7704)">
	<stop  offset="0.2477" style="stop-color:#FFFFFF;stop-opacity:0"/>
	<stop  offset="1" style="stop-color:#FFFFFF;stop-opacity:0.1"/>
</linearGradient>
<linearGradient id="SVGID_68_" gradientUnits="userSpaceOnUse" x1="999.3154" y1="-1253.7432" x2="1002.1483" y2="-1230.5488" gradientTransform="matrix(-0.9926 -0.1212 0.1212 -0.9926 2173.9946 -896.7704)">
	<stop  offset="0" style="stop-color:#FFFFFF"/>
	<stop  offset="1" style="stop-color:#FFFFFF;stop-opacity:0"/>
</linearGradient>
<polyline fill="url(#SVGID_67_)" stroke="url(#SVGID_68_)" stroke-width="0.5" stroke-miterlimit="10" points="1012.946,203.419 
	1046.513,226.115 1047.183,203.68 "/>
<linearGradient id="SVGID_69_" gradientUnits="userSpaceOnUse" x1="-610.9683" y1="381.4688" x2="-632.0547" y2="369.8568" gradientTransform="matrix(-0.1644 -0.9864 0.9864 -0.1644 636.1595 -322.2325)">
	<stop  offset="0.2477" style="stop-color:#FFFFFF;stop-opacity:0"/>
	<stop  offset="1" style="stop-color:#FFFFFF;stop-opacity:0.1"/>
</linearGradient>
<linearGradient id="SVGID_70_" gradientUnits="userSpaceOnUse" x1="-632.4409" y1="369.584" x2="-610.7634" y2="381.5214" gradientTransform="matrix(-0.1644 -0.9864 0.9864 -0.1644 636.1595 -322.2325)">
	<stop  offset="0" style="stop-color:#FFFFFF"/>
	<stop  offset="1" style="stop-color:#FFFFFF;stop-opacity:0"/>
</linearGradient>
<polyline fill="url(#SVGID_69_)" stroke="url(#SVGID_70_)" stroke-width="0.5" stroke-miterlimit="10" points="1095.405,214.815 
	1089.144,234.881 1129.344,223.502 "/>
<linearGradient id="SVGID_71_" gradientUnits="userSpaceOnUse" x1="1519.4531" y1="-1146.1221" x2="1500.0348" y2="-1156.8154" gradientTransform="matrix(-0.9911 0.1328 -0.1328 -0.9911 2503.7278 -1152.0687)">
	<stop  offset="0.2477" style="stop-color:#FFFFFF;stop-opacity:0"/>
	<stop  offset="1" style="stop-color:#FFFFFF;stop-opacity:0.1"/>
</linearGradient>
<linearGradient id="SVGID_72_" gradientUnits="userSpaceOnUse" x1="1499.624" y1="-1157.2104" x2="1519.5839" y2="-1146.2189" gradientTransform="matrix(-0.9911 0.1328 -0.1328 -0.9911 2503.7278 -1152.0687)">
	<stop  offset="0" style="stop-color:#FFFFFF"/>
	<stop  offset="1" style="stop-color:#FFFFFF;stop-opacity:0"/>
</linearGradient>
<polyline fill="url(#SVGID_71_)" stroke="url(#SVGID_72_)" stroke-width="0.5" stroke-miterlimit="10" points="1148.78,188.795 
	1167.043,203.004 1163.061,179.948 "/>
<linearGradient id="SVGID_73_" gradientUnits="userSpaceOnUse" x1="280.1099" y1="-819.6436" x2="260.7479" y2="-818.703" gradientTransform="matrix(-0.8407 -0.5414 0.5414 -0.8407 1863.4529 -396.085)">
	<stop  offset="0.2477" style="stop-color:#FFFFFF;stop-opacity:0"/>
	<stop  offset="1" style="stop-color:#FFFFFF;stop-opacity:0.1"/>
</linearGradient>
<linearGradient id="SVGID_74_" gradientUnits="userSpaceOnUse" x1="255.1826" y1="-821.959" x2="280.2615" y2="-816.5281" gradientTransform="matrix(-0.8407 -0.5414 0.5414 -0.8407 1863.4529 -396.085)">
	<stop  offset="0" style="stop-color:#FFFFFF"/>
	<stop  offset="1" style="stop-color:#FFFFFF;stop-opacity:0"/>
</linearGradient>
<polyline fill="url(#SVGID_73_)" stroke="url(#SVGID_74_)" stroke-width="0.5" stroke-miterlimit="10" points="1175.723,156.035 
	1190.035,170.013 1199.72,124.981 "/>
<linearGradient id="SVGID_75_" gradientUnits="userSpaceOnUse" x1="3002.3633" y1="-235.4092" x2="2984.3752" y2="-245.315" gradientTransform="matrix(-0.4429 0.8965 -0.8965 -0.4429 2287.6145 -2710.2107)">
	<stop  offset="0.2477" style="stop-color:#FFFFFF;stop-opacity:0"/>
	<stop  offset="1" style="stop-color:#FFFFFF;stop-opacity:0.1"/>
</linearGradient>
<linearGradient id="SVGID_76_" gradientUnits="userSpaceOnUse" x1="2983.8896" y1="-245.6255" x2="3002.3909" y2="-235.4371" gradientTransform="matrix(-0.4429 0.8965 -0.8965 -0.4429 2287.6145 -2710.2107)">
	<stop  offset="0" style="stop-color:#FFFFFF"/>
	<stop  offset="1" style="stop-color:#FFFFFF;stop-opacity:0"/>
</linearGradient>
<polyline fill="url(#SVGID_75_)" stroke="url(#SVGID_76_)" stroke-width="0.5" stroke-miterlimit="10" points="1174.271,93.364 
	1190.734,81.075 1165.796,76.417 "/>
<rect x="-215.494" y="296.984" fill="none" width="1919" height="170.934"/>
</svg>
